<svg xmlns="http://www.w3.org/2000/svg" xmlns:xlink="http://www.w3.org/1999/xlink" id="图层_1" x="0" y="0" enable-background="new 0 0 218 218" version="1.1" viewBox="0 0 218 218" xml:space="preserve"><style type="text/css">.st0{fill:url(#SVGID_1_)}.st1{enable-background:new}.st2{fill:#0085f6}.st3{fill:none}</style><g><g><linearGradient id="SVGID_1_" x1="174.559" x2="93.247" y1="164.505" y2="23.669" gradientTransform="matrix(1 0 0 1 -22.5076 18.5)" gradientUnits="userSpaceOnUse"><stop offset="0" stop-color="#0063FF"/><stop offset="1" stop-color="#00C8DE"/></linearGradient><path d="M49,142v-0.1c0,0,0,0,0,0L49,142z M169,131c-1.4-12.1-8-22.5-21.8-36.3c-13.8,13.8-19.9,24.3-21.2,36.3 c-1.4,12.5,4.4,22,20,26.5V170h3v-12.6C164.2,152.8,170.4,143.3,169,131z M146,154.4c-12.6-3.9-18.2-11.9-17-22.4 c1.1-9.4,5.9-19.6,17-31.5V154.4z M149,154.2v-53.2c10.8,11.7,16,21.7,17,30.9C167.2,142.4,161.3,150.2,149,154.2z M106,163 c-29.2,0-54-9.5-54-21v-19c8.2,9.2,29.9,17,54,17c2.7,0,5.4-0.1,8.1-0.3c-0.2-1-0.3-2-0.4-3c-2.5,0.1-5.1,0.2-7.6,0.2 c-29.2,0-54-10.5-54-22V97c8.2,9.2,29.9,16,54,16c4.5,0,9-0.2,13.2-0.7c0.6-1.1,1.1-2.1,1.8-3.2c-4.8,0.6-9.8,0.9-15,0.9 c-29.2,0-54-9.5-54-21V71c8.2,9.2,29.9,16,54,16c24.1,0,44.8-6.8,53-16v18c0,0.5-0.1,1.1-0.2,1.6c1.1,1.1,2.2,2.3,3.2,3.4V63 c0-13.6-24.8-25-56-25c-31.2,0-57,11.4-57,25l0,26v0v26.4l0-0.4v26.9c0,13.6,25.8,24.1,57,24.1c10.3,0,19.9-1.1,28.1-3.1 c-1.6-0.5-3.2-1.2-4.8-2C122.3,162.2,114.4,163,106,163z M106,41c29.2,0,53,10.5,53,22c0,11.5-23.8,21-53,21c-29.2,0-54-9.5-54-21 C52,51.5,76.8,41,106,41z" class="st0"/></g></g><g class="st1"><path d="M77.9,184h1.4l3.7,8.5h0l3.7-8.5h1.4v10h-1.1v-8h0l-3.5,8h-1l-3.5-8h0v8h-1.1V184z" class="st2"/><path d="M95.9,187.7c0.6,0.7,0.9,1.6,0.9,2.7c0,1.1-0.3,2-0.9,2.7c-0.7,0.8-1.5,1.1-2.6,1.1c-1.1,0-1.9-0.4-2.6-1.1 c-0.6-0.7-0.9-1.6-0.9-2.7c0-1.1,0.3-2,0.9-2.7c0.6-0.7,1.5-1.1,2.6-1.1C94.4,186.6,95.3,186.9,95.9,187.7z M91.5,188.4 c-0.4,0.5-0.6,1.2-0.6,2c0,0.8,0.2,1.5,0.6,2c0.4,0.6,1,0.9,1.8,0.9c0.8,0,1.4-0.3,1.8-0.9c0.4-0.5,0.6-1.2,0.6-2 c0-0.8-0.2-1.5-0.6-2c-0.4-0.6-1.1-0.9-1.8-0.9C92.6,187.5,92,187.8,91.5,188.4z" class="st2"/><path d="M104.4,189.5v4.5h-1.1v-4.4c0-1.4-0.6-2.1-1.9-2.1c-0.5,0-0.9,0.2-1.3,0.5c-0.4,0.4-0.6,0.9-0.6,1.6v4.4h-1.1 v-7.2h1.1v1.1c0.3-0.4,0.6-0.7,1-0.9c0.4-0.2,0.8-0.3,1.3-0.3C103.5,186.6,104.4,187.6,104.4,189.5z" class="st2"/><path d="M111.6,188v-1.2h1.1v6.7c0,2.3-1.1,3.5-3.3,3.5c-1,0-1.7-0.2-2.2-0.6c-0.5-0.4-0.8-1-1-1.8h1.1 c0.1,0.5,0.3,0.9,0.6,1.1c0.3,0.2,0.8,0.4,1.5,0.4c1.5,0,2.2-0.8,2.2-2.4v-1.3c-0.5,1-1.3,1.5-2.4,1.5c-1,0-1.8-0.3-2.4-1 c-0.6-0.7-0.9-1.5-0.9-2.6c0-1.1,0.3-1.9,0.9-2.6c0.6-0.7,1.4-1.1,2.4-1.1C110.2,186.6,111,187,111.6,188z M107.6,188.3 c-0.4,0.5-0.6,1.1-0.6,1.9c0,0.8,0.2,1.4,0.5,1.9c0.4,0.5,1,0.8,1.8,0.8c0.7,0,1.3-0.3,1.7-0.8c0.4-0.5,0.6-1.1,0.6-1.9 c0-0.8-0.2-1.5-0.6-1.9c-0.4-0.5-1-0.8-1.7-0.8C108.6,187.5,108,187.8,107.6,188.3z" class="st2"/><path d="M120.2,187.7c0.6,0.7,0.9,1.6,0.9,2.7c0,1.1-0.3,2-0.9,2.7c-0.7,0.8-1.5,1.1-2.6,1.1s-1.9-0.4-2.6-1.1 c-0.6-0.7-0.9-1.6-0.9-2.7c0-1.1,0.3-2,0.9-2.7c0.6-0.7,1.5-1.1,2.6-1.1S119.6,186.9,120.2,187.7z M115.9,188.4 c-0.4,0.5-0.6,1.2-0.6,2c0,0.8,0.2,1.5,0.6,2c0.4,0.6,1,0.9,1.8,0.9c0.8,0,1.4-0.3,1.8-0.9c0.4-0.5,0.6-1.2,0.6-2 c0-0.8-0.2-1.5-0.6-2c-0.4-0.6-1.1-0.9-1.8-0.9C116.9,187.5,116.3,187.8,115.9,188.4z" class="st2"/><path d="M122.8,184h3.6c1.6,0,2.8,0.5,3.6,1.4c0.7,0.8,1.1,2.1,1.1,3.6c0,1.5-0.4,2.7-1.2,3.6c-0.8,0.9-2,1.4-3.6,1.4 h-3.5V184z M123.9,185v8h2.1c1.3,0,2.3-0.3,2.9-1c0.6-0.7,0.9-1.7,0.9-3c0-1.3-0.3-2.3-0.9-3c-0.6-0.7-1.6-1-2.9-1H123.9z" class="st2"/><path d="M132.6,184h4.5c0.9,0,1.7,0.2,2.2,0.7c0.5,0.4,0.8,1.1,0.8,1.8c0,0.6-0.1,1-0.4,1.5c-0.3,0.4-0.7,0.6-1.2,0.8 c0.6,0.1,1.2,0.4,1.5,0.8c0.4,0.4,0.6,1,0.6,1.6c0,1-0.3,1.7-1,2.2c-0.6,0.4-1.4,0.6-2.4,0.6h-4.4V184z M133.8,185v3.4h3 c0.7,0,1.2-0.1,1.6-0.4c0.4-0.3,0.6-0.7,0.6-1.3c0-0.6-0.2-1-0.5-1.3c-0.4-0.3-0.9-0.4-1.6-0.4H133.8z M133.8,189.3v3.7h3.2 c0.7,0,1.2-0.1,1.7-0.4c0.5-0.3,0.7-0.8,0.7-1.4c0-0.6-0.2-1.1-0.6-1.4c-0.4-0.3-1-0.4-1.8-0.4H133.8z" class="st2"/></g><rect width="218" height="25.7" x="0" class="st3"/></svg>